/* XPM */
static char *_84fd70284c94b4fa210765a56228d31oKgjcQRmdbOhOtb1[] = {
/* columns rows colors chars-per-pixel */
"64 64 94 2 ",
"   c black",
".  c #060306",
"X  c #0B060B",
"o  c #0B070C",
"O  c #0F0810",
"+  c #0F0910",
"@  c #100911",
"#  c #130B14",
"$  c #150C16",
"%  c #150C17",
"&  c #170D19",
"*  c #180E1A",
"=  c #1B0F1C",
"-  c #1B101D",
";  c #1F1222",
":  c #211323",
">  c #231425",
",  c #27172A",
"<  c #28172B",
"1  c #2B192E",
"2  c #2E1A31",
"3  c #2F1B33",
"4  c #311C35",
"5  c #321D35",
"6  c #331D36",
"7  c #361F3A",
"8  c #38203B",
"9  c #39213D",
"0  c #3B2240",
"q  c #3C2340",
"w  c #3F2443",
"e  c #422646",
"r  c #432748",
"t  c #442749",
"y  c #47294B",
"u  c #47294C",
"i  c #48294D",
"p  c #4A2B4F",
"a  c #4B2B50",
"s  c #4C2C51",
"d  c #4F2E55",
"f  c #512F56",
"g  c #522F58",
"h  c #54305A",
"j  c #55315B",
"k  c #59335F",
"l  c #5B3562",
"z  c #5D3663",
"x  c #5E3664",
"c  c #63396A",
"v  c #643A6B",
"b  c #653A6C",
"n  c #673C6E",
"m  c #683C70",
"M  c #693D71",
"N  c #6D3F75",
"B  c #6F4077",
"V  c #704178",
"C  c #73437B",
"Z  c #7B4783",
"A  c #7C4784",
"S  c #7C4885",
"D  c #804A89",
"F  c #834C8C",
"G  c #844C8D",
"H  c #854D8E",
"J  c #864E90",
"K  c #884E91",
"L  c #894F93",
"P  c #8A5094",
"I  c #8D5297",
"U  c #8F5299",
"Y  c #94569E",
"T  c #9757A1",
"R  c #9958A3",
"E  c #9959A4",
"W  c #9B59A5",
"Q  c #9E5BA9",
"!  c #9F5CAA",
"~  c #A05CAB",
"^  c #A35EAF",
"/  c #A45FB0",
"(  c #A761B3",
")  c #AB63B7",
"_  c #AD64B9",
"`  c #AF65BC",
"'  c #B066BD",
"]  c #B166BD",
"[  c #B267BF",
"{  c #B468C0",
"}  c #B468C1",
"|  c #B669C3",
" . c #B76AC4",
".. c #B96BC6",
/* pixels */
"................................................................................................................................",
"................................................................................................................................",
"................................................................................................................................",
"................................................................................................................................",
"................................................................................................................................",
"................................................................................................................................",
"................................................................................................................................",
"................................................................................................................................",
"................................................................................................................................",
"................................................................................................................................",
"................................................................................................................................",
"................................................................................................................................",
"................................................................................................................................",
"................................................................................................................................",
"................................................................................................................................",
"................................................................................................................................",
"......................................} ^ T T T T T T T T T T T T T T T T T T T T T T T Q ] ....................................",
"......................................( M q q q q q q q q q q q q q q q q q q q q q q q d I ....................................",
"......................................! t                                               $ B ....................................",
"......................................Q t                                               $ V ....................................",
"......................................! t                                               % C ....................................",
"......................................! t         = w y y y y i y y y y y y y y u y y y g L ....................................",
"......................................! t         t ~ } } } } } } } } } } } } } } } } } { ......................................",
"......................................! t         y / ..........................................................................",
"......................................! t         e E _ _ _ _ _ _ _ _ _ _ _ _ _ _ _ _ _ _ ] ....................................",
"......................................! t         > g z z z z z z z z z z z z z z z z z z P ....................................",
"......................................! r                                                 k ....................................",
"......................................! y                                                 l ....................................",
"......................................Q t                                                 l ....................................",
"......................................( c 5 6 5 5 5 5 5 5 > o         * 5 5 5 5 5 5 5 5 5 C ....................................",
"......................................} ^ Y Y Y Y T Y Y T M :         i Y Y Y T Y T Y T T / ....................................",
"................................} ] ] ] ] ` ] ] ] ] ] ] ] D <         j ] ] ] ] ] ] ] ] ] ] ] ] ]  .............................",
".............................._ G c c c c c c c c c c c c i %         5 c c c c c c c c c c c c C Q ............................",
"............................../ i                                                               : S ............................",
"............................../ s                                                               ; Z ............................",
"..............................^ a                                                               ; A ............................",
"..............................) b 2 2 2 2 2 2 2 2 2 2 2 1 2 2 2 2 2 2 2 2 2 2 2 2 2 2 2 2 2 2 2 u L ............................",
"..............................} ! U U U U U U U U U U U Y P G G D D J I U U U U U U U U U U U U T ) ............................",
"................................................} / I A C M c l l z c M B S L R _ .............. ...............................",
"............................................) I C f 2 # .               X # > e z G / ..........................................",
"..........................................~ n 3 o                                 > z W ........................................",
"........................................! j #                                       + f E  .....................................",
"......................................[ B %           # < 8 w e e e w 8 1 & .         + z ] ....................................",
"......................................~ r         X 9 c J E ( ) _ ) ( ! I M e #         9 T ....................................",
"......................................U 5         2 P } ....................E q         > D ....................................",
"......................................U 5         9 R ......................( s         - C ....................................",
"......................................^ y         * j L ! _ }  ...} } _ ^ U c :         1 G ....................................",
"......................................] v +         X 1 a z M N B B M v d 5 +         . y ~ ....................................",
"........................................Y r o                                         , S  .....................................",
"........................................ .Y i &                                   # 8 A ] ......................................",
".......................................... .Q M 9 < % .                     # 1 e c Y } ........................................",
"..............................................} ( G v d u e 0 8 5 5 9 e t s c J (  .............................................",
"........................................................} _ ^ E Y T ^ ( ]  .....................................................",
"................................................................................................................................",
"................................................................................................................................",
"................................................................................................................................",
"................................................................................................................................",
"................................................................................................................................",
"................................................................................................................................",
"................................................................................................................................",
"................................................................................................................................",
"................................................................................................................................",
"................................................................................................................................",
"................................................................................................................................"
};
