/* XPM */
static char *f03474acb40147c7b4741f25bc9d81c3izOpyGao9djzt0dH[] = {
/* columns rows colors chars-per-pixel */
"64 64 72 1 ",
"  c #020303",
". c gray1",
"X c #060707",
"o c #070909",
"O c #080A0A",
"+ c #0C0F0F",
"@ c #161C1B",
"# c #1A2020",
"$ c #1C2322",
"% c #1D2524",
"& c #202827",
"* c #202928",
"= c #262F2E",
"- c #26302F",
"; c #283231",
": c #2B3534",
"> c #2F3B3A",
", c #313D3C",
"< c #333F3E",
"1 c #344140",
"2 c #354240",
"3 c #3A4846",
"4 c #3D4C4A",
"5 c #3D4C4B",
"6 c #3F4F4D",
"7 c #41514F",
"8 c #415150",
"9 c #435352",
"0 c #495B59",
"q c #495C5A",
"w c #4C5F5D",
"e c #4D605E",
"r c #516563",
"t c #546967",
"y c #5C7370",
"u c #607775",
"i c #617976",
"p c #67817E",
"a c #708C89",
"s c #74918E",
"d c #769390",
"f c #779491",
"g c #799794",
"h c #7B9996",
"j c #7D9C99",
"k c #83A3A0",
"l c #87A9A5",
"z c #88AAA6",
"x c #8BADAA",
"c c #8BAEAA",
"v c #8EB2AE",
"b c #8FB3AF",
"n c #90B4B0",
"m c #92B7B3",
"M c #97BDB9",
"N c #98BEBA",
"B c #9CC3BF",
"V c #9FC6C2",
"C c #A1C9C5",
"Z c #AAD4D0",
"A c #AAD5D0",
"S c #ACD7D2",
"D c #AEDAD5",
"F c #B0DBD7",
"G c #B0DCD7",
"H c #B3DFDA",
"J c #B3E0DB",
"K c #B4E0DC",
"L c #B5E2DD",
"P c #B6E4DF",
"I c #B7E5E0",
"U c #B8E6E1",
/* pixels */
"UUUUUUUUUUUUUUUUUUUUUUUUUUUUUUUUUUUUUUUUUUUUUUUUUUUUUUUUUUUUUUUU",
"UUUUUUUUUUUUUUUUUUUUUUUUUUUUUUUUUUUUUUUUUUUUUUUUUUUUUUUUUUUUUUUU",
"UUUUUUUUUUUUUUUUUUUUUUUUUUUUUUUUUUUUUUUUUUUUUUUUUUUUUUUUUUUUUUUU",
"UUUUUUUUUUUUUUUUUUUUUUUUUUUUUUUUUUUUUUUUUUUUUUUUUUUUUUUUUUUUUUUU",
"UUUUUUUUUUUUUUUUUUUUUUUUUUUUUUUUUUUUUUUUUUUUUUUUUUUUUUUUUUUUUUUU",
"UUUUUUUUUUUUUUUUUUUUUUUUUUUUUUUUUUUUUUUUUUUUUUUUUUUUUUUUUUUUUUUU",
"UUUUUUUUUUUUUUUUUUUUUUUUUUUUUUUUUUUUUUUUUUUUUUUUUUUUUUUUUUUUUUUU",
"UUUUUUUUUUUUUUUUUUUUUUUUUUUUUUUUUUUUUUUUUUUUUUUUUUUUUUUUUUUUUUUU",
"UUUUUUUUUUUUUUUUUUUUUUUUUUUUUUUUUUUUUUUUUUUUUUUUUUUUUUUUUUUUUUUU",
"UUUUUUUUUUUUUUUUUUUUUUUUUUUUUUUUUUUUUUUUUUUUUUUUUUUUUUUUUUUUUUUU",
"UUUUUUUUUUUUUUUUUUUUUUUUUUUUUUUUUUUUUUUUUUUUUUUUUUUUUUUUUUUUUUUU",
"UUUUUUUUUUUUUUUUUUUUUUUUUUUUUUUUUUUUUUUUUUUUUUUUUUUUUUUUUUUUUUUU",
"UUUUUUUUUUUUUUUUUUUUUUUUUUUUUUUUUUUUUUUUUUUUUUUUUUUUUUUUUUUUUUUU",
"UUUUUUUUUUUUUUUUUUUUUUUUUUUUUUUUUUUUUUUUUUUUUUUUUUUUUUUUUUUUUUUU",
"UUUUUUUUUUUUUUUUUUUUUUUUUUUUUUUUUUUUUUUUUUUUUUUUUUUUUUUUUUUUUUUU",
"UUUUUUUUUUUUUUUUUUUUUUUUUUUUUUUUUUUUUUUUUUUUUUUUUUUUUUUUUUUUUUUU",
"UUUUUUUUUUUUUUUUUUUUJDASAGLIUUUUUUUUUUIHDAAADLUUUUUUUUUUUUUUUUUU",
"UUUUUUUUUUUUUUUUUUUDr....5BIUUUUUUUUUULyo...2vUUUUUUUUUUUUUUUUUU",
"UUUUUUUUUUUUUUUUUUUAq....5NUUUUUUUUUUULt....<vUUUUUUUUUUUUUUUUUU",
"UUUUUUUUUUUUUUUUUUUAw....5NUUUUUUUUUUULt....<vUUUUUUUUUUUUUUUUUU",
"UUUUUUUUUUUUUUUUUUUAw......O+OOO+O++OO+.....<vUUUUUUUUUUUUUUUUUU",
"UUUUUUUUUUUUUUUUUUUAw.......................<vUUUUUUUUUUUUUUUUUU",
"UUUUUUUUUUUUUUUUUUIAq.......................<vUUUUUUUUUUUUUUUUUU",
"UUUUUUUUUUUUUUUUUUIAw.......................<vUUUUUUUUUUUUUUUUUU",
"UUUUUUUUUUUUUUUUUUUAw....=ydssssasaddsa1....<vUUUUUUUUUUUUUUUUUU",
"UUUUUUUUUUUUUUUUUUUAq....3MIIIIIIIIIIIHt....<vUUUUUUUUUUUUUUUUUU",
"UUUUUUUUUUUUUUUUUUUAw....>dnvvvxvvnnvnx6....<vLUUUUUUUUUUUUUUUUU",
"UUUUUUUUUUUUUUUUUUUAq.......................<vIIUUUUUUUUUUUUUUUU",
"UUUUUUUUUUUUUUUUUUUAw.......................<vUUUUUUUUUUUUUUUUUU",
"UUUUUUUUUUUUUUUUUUUAq.......................<vUUUUUUUUUUUUUUUUUU",
"UUUUUUUUUUUUUUUUUUUAw.......................<vUUUUUUUUUUUUUUUUUU",
"UUUUUUUUUUUUUUUUUUULCmmmnmnmnmnmmnmmnmmnmmmmCJUUUUUUUUUUUUUUUUUU",
"UUUUUUUUUUUUUUUIUUUIUUUUUUIIUIIIIIIIIIIIUUUUUUUUUUUUUUUUUUUUUUUU",
"UUUUUUUUUUUUUUUCq++O++OO++OO++OO+ooo++++OO++++OO<lUUUUUUUUUUUUUU",
"UUUUUUUUUUUUUUUV8...............................-kUUUUUUUUUUUUUU",
"UUUUUUUUUUUUUUUV5...............................-kUUUUUUUUUUUUUU",
"UUUUUUUUUUUUUUUV8...............................-kUUUUUUUUUUUUUU",
"UUUUUUUUUUUUUUUFjwwqewqqqwwqw=.....:qeqqewqqqeqwiVUUUUUUUUUUUUUU",
"UUUUUUUUUUUUUUUUIIILIIIIIIIIId$...oiIIIIIIIIIIIIUUUUUUUUUUUUUUUU",
"UUUUUUUUUUUUUUUUUUUUUIIIIUIIIg$....aIUUUUIIUIIUUUUUUUUUUUUUUUUUU",
"UUUUUUUUUUUUUUUUUUUmq:::-::;:@.....@;::;:;::9xUUUUUUUUUUUUUUUUUU",
"UUUUUUUUUUUUUUUUUUUf$.......................*jUUUUUUUUUUUUUUUUUU",
"UUUUUUUUUUUUUUUUUUUf#.......................*jUUUUUUUUUUUUUUUUUU",
"UUUUUUUUUUUUUUUUUUUd$.......................*jUUUUUUUUUUUUUUUUUU",
"UUUUUUUUUUUUUUUUUUUxq333333333332333333%....%hUUUUUUUUUUUUUUUUUU",
"UUUUUUUUUUUUUUUUUUUIILIIIIIIIIIIIIIIIIUi....%jUUUUUUUUUUUUUUUUUU",
"UUUUUUUUUUUUUUUUUUUUUUIUUUUUIIUUIUUUIIUiO...*jUUUUUUUUUUUUUUUUUU",
"UUUUUUUUUUUUUUUUUUUUUUUUUUUUIIUUUUUUIIUyO...*jUUUUUUUUUUUUUUUUUU",
"UUUUUUUUUUUUUUUUUUUUUUUUUUUUUUUUUUUUUUUi....*jUUUUUUUUUUUUUUUUUU",
"UUUUUUUUUUUUUUUUUUUUUUUUUUUUUUUUUUUUUUUiO...*hUUUUUUUUUUUUUUUUUU",
"UUUUUUUUUUUUUUUUUUUUUUUUUUUUUUUUUUUUUUUiO...*jUUUUUUUUUUUUUUUUUU",
"UUUUUUUUUUUUUUUUUUUUUUUUUUUUUUUUUUUUUUUiX...*jUUUUUUUUUUUUUUUUUU",
"UUUUUUUUUUUUUUUUUUUUUUUUUUUUUUUUUUUUUUUNddadzAUUUUUUUUUUUUUUUUUU",
"UUUUUUUUUUUUUUUUUUUUUUUUUUUUUUUUUUUUUUUUIIIIIUUUUUUUUUUUUUUUUUUU",
"UUUUUUUUUUUUUUUUUUUUUUUUUUUUUUUUUUUUUUUUUUIUUUUUUUUUUUUUUUUUUUUU",
"UUUUUUUUUUUUUUUUUUUUUUUUUUUUUUUUUUUUUUUUUUUUUUUUUUUUUUUUUUUUUUUU",
"UUUUUUUUUUUUUUUUUUUUUUUUUUUUUUUUUUUUUUUUUUUUUUUUUUUUUUUUUUUUUUUU",
"UUUUUUUUUUUUUUUUUUUUUUUUUUUUUUUUUUUUUUUUUUUUUUUUUUUUUUUUUUUUUUUU",
"UUUUUUUUUUUUUUUUUUUUUUUUUUUUUUUUUUUUUUUUUUUUUUUUUUUUUUUUUUUUUUUU",
"UUUUUUUUUUUUUUUUUUUUUUUUUUUUUUUUUUUUUUUUUUUUUUUUUUUUUUUUUUUUUUUU",
"UUUUUUUUUUUUUUUUUUUUUUUUUUUUUUUUUUUUUUUUUUUUUUUUUUUUUUUUUUUUUUUU",
"UUUUUUUUUUUUUUUUUUUUUUUUUUUUUUUUUUUUUUUUUUUUUUUUUUUUUUUUUUUUUUUU",
"UUUUUUUUUUUUUUUUUUUUUUUUUUUUUUUUUUUUUUUUUUUUUUUUUUUUUUUUUUUUUUUU",
"UUUUUUUUUUUUUUUUUUUUUUUUUUUUUUUUUUUUUUUUUUUUUUUUUUUUUUUUUUUUUUUU"
};
