/* XPM */
static char *_6fa6300863a4ebda78b1b0f3def949bBf5PAU7O5QHxet4A[] = {
/* columns rows colors chars-per-pixel */
"64 64 88 1 ",
"  c black",
". c gray1",
"X c #040405",
"o c #070708",
"O c #070809",
"+ c #09090A",
"@ c #0A0A0C",
"# c #0C0C0E",
"$ c #0D0E10",
"% c #0F1012",
"& c #101013",
"* c #111113",
"= c #111114",
"- c #141517",
"; c #17171A",
": c #191A1D",
"> c #1A1A1E",
", c #1B1C20",
"< c #1D1E22",
"1 c #202125",
"2 c #232429",
"3 c #27282E",
"4 c #2D2E35",
"5 c #2F3037",
"6 c #33353C",
"7 c #3B3C45",
"8 c #41434C",
"9 c #43454F",
"0 c #444650",
"q c #474953",
"w c #4A4C57",
"e c #4B4D58",
"r c #4C4E59",
"t c #4E505B",
"y c #535561",
"u c #545663",
"i c #575A66",
"p c #5D5F6D",
"a c #606371",
"s c #616472",
"d c #636674",
"f c #6A6D7D",
"g c #6D7080",
"h c #737687",
"j c #76798B",
"k c #777A8C",
"l c #7A7D8F",
"z c #7D8193",
"x c #7F8396",
"c c #818598",
"v c #84889B",
"b c #85899D",
"n c #888CA1",
"m c #8C90A5",
"M c #9195AB",
"N c #9296AC",
"B c #9397AC",
"V c #969AB0",
"C c #979CB2",
"Z c #989DB3",
"A c #A3A8C0",
"S c #A7ACC4",
"D c #AAAFC8",
"F c #ACB1CB",
"G c #ADB2CC",
"H c #AFB4CD",
"J c #B0B5CF",
"K c #B1B7D1",
"L c #B2B7D2",
"P c #B5BAD5",
"I c #B5BBD5",
"U c #B8BDD8",
"Y c #BBC0DC",
"T c #BEC3DF",
"R c #BEC4E0",
"E c #C1C7E3",
"W c #C2C7E4",
"Q c #C2C8E4",
"! c #C4CAE6",
"~ c #C5CAE7",
"^ c #C6CCE9",
"/ c #C7CDEA",
"( c #C8CDEB",
") c #C8CEEC",
"_ c #CACFED",
"` c #CBD1EE",
"' c #CCD2EF",
"] c #CCD2F0",
/* pixels */
"]]]]]]]]]]]]]]]]]]]]]]]]]]]]]]]]]]]]]]]]]]]]]]]]]]]]]]]]]]]]]]]]",
"]]]]]]]]]]]]]]]]]]]]]]]]]]]]]]]]]]]]]]]]]]]]]]]]]]]]]]]]]]]]]]]]",
"]]]]]]]]]]]]]]]]]]]]]]]]]]]]]]]]]]]]]]]]]]]]]]]]]]]]]]]]]]]]]]]]",
"]]]]]]]]]]]]]]]]]]]]]]]]]]]]]]]]]]]]]]]]]]]]]]]]]]]]]]]]]]]]]]]]",
"]]]]]]]]]]]]]]]]]]]]]]]]]]]]]]]]]]]]]]]]]]]]]]]]]]]]]]]]]]]]]]]]",
"]]]]]]]]]]]]]]]]]]]]]]]]]]]]]]]]]]]]]]]]]]]]]]]]]]]]]]]]]]]]]]]]",
"]]]]]]]]]]]]]]]]]]]]]]]]]]]]]]]]]]]]]]]]]]]]]]]]]]]]]]]]]]]]]]]]",
"]]]]]]]]]]]]]]]]]]]]]]]]]]]]]]]]]]]]]]]]]]]]]]]]]]]]]]]]]]]]]]]]",
"]]]]]]]]]]]]]]]]]]]]]]]]]]]]]]]]]]]]]]]]]]]]]]]]]]]]]]]]]]]]]]]]",
"]]]]]]]]]]]]]]]]]]]]]]]]]]]]]]]]]]]]]]]]]]]]]]]]]]]]]]]]]]]]]]]]",
"]]]]]]]]]]]]]]]]]]]]]]]]]]]]]]]]]]]]]]]]]]]]]]]]]]]]]]]]]]]]]]]]",
"]]]]]]]]]]]]]]]]]]]]]]]]]]]]]]]]]]]]]]]]]]]]]]]]]]]]]]]]]]]]]]]]",
"]]]]]]]]]]]]]]]]]]]]]]]]]]]]]]]]]]]]]]]]]]]]]]]]]]]]]]]]]]]]]]]]",
"]]]]]]]]]]]]]]]]]]]]]]]]]]]]]]]]]]]]]]]]]]]]]]]]]]]]]]]]]]]]]]]]",
"]]]]]]]]]]]]]]]]]]]]]]]]]]]]]]]]]]]]]]]]]`]]]]]]]]]]]]]]]]]]]]]]",
"]]]]]]]]]]]]]]]]]]]]]]]]]]]]]]]]]]]]]]]``__)`]]]]]]]]]]]]]]]]]]]",
"]]]]]]]]]]]]]]]]]]]]]]]]]]]]]]]]]]]]]]/l***=<L]]]]]]]]]]]]]]]]]]",
"]]]]]]]]]]]]]]]]'QNNNNVE]]]]]]]]]]]]]`/h    #H]]]]]]]]]]]]]]]]]]",
"]]]]]]]]]]]]]]]]`F####-z]]]]]]]]]]]]]]~h    %H]]]]]]]]]]]]]]]]]]",
"]]]]]]]]]]]]]]]]`D    +j]]]]]]]]]]]]]]/h    #H]]]]]]]]]]]]]]]]]]",
"]]]]]]]]]]]]]]]]`D    +j]]]]]]]]]]]]]]/h    $H]]]]]]]]]]]]]]]]]]",
"]]]]]]]]]]]]]]]]_D    +j]]]]]]]]]]]]]]/h    $H]]]]]]]]]]]]]]]]]]",
"]]]]]]]]]]]]]]]]'D    +j]]]]]]]]]]]]]]/h    #H]`]]]]]]]]]]]]]]]]",
"]]]]]]]]]]]]]]]]_D    +j]]]]]]]]]]]]]`/h    OaxxxN]]]]]]]]]]]]]]",
"]]]]]]]]]]]]]]]]_D    +j]]]]]]]]]]]]]]/h     +@@@2]]]]]]]]]]]]]]",
"]]]]]]]]]]]]]]]]'D    +j]]]]]]]]]]]]]]/h         >]]]]]]]]]]]]]]",
"]]]]]]]]]]]]]]]]'D    +j]]]]]]]]]]]]]`^h         ,]]]]]]]]]]]]]]",
"]]]]]]]]]]]]]]]]_D    +j]]]]]]]]]]]]]`^h         >]]]]]]]]]]]]]]",
"]]]]]]]]]]]]]]]]_D    +k]]]]]]]]]]]QLQ/h    +cCCZS]]]]]]]]]]]]]]",
"]]]]]]]]]]]]]]]]'D    +k]`QYLSNkp81=>C/h    $F__`_]]]]]]]]]]]]]]",
"]]]]]]]]]]]]]]]]_D     #>==%%$#++X  ox/h    $H]]]]]]]]]]]]]]]]]]",
"]]]]]]]]]]]]]]]]_D                  Xd^h    $H]]]]]]]]]]]]]]]]]]",
"]]]]]]]]]]]]]]]]`D                  Xq_h    $J]]]]]]]]]]]]]]]]]]",
"]]]]]]]]]]]]]]]]`F               .30dn/h    #G]]]]]]]]]]]]]]]]]]",
"]]]]]]]]]]]]]]]]`G>>>>24679rudlNFUEQQ/^h    %J']]]]]]]]]]]]]]]]]",
"]]]]]]]]]]]]]]]]]_YTTTRREQEQE~/_```]]`^h    #J'']]]]]]]]]]]]]]]]",
"]]]]]]]]]]]]]]]]]]]]']]]`']]]]]]]]]]]]_AewwwyU]]]]]]]]]]]]]]]]]]",
"]]]]]]]]]]]]]]]]]]]]`^IIIIIIIIIIIIIIIIILDFFDG/]]]]]]]]]]]]]]]]]]",
"]]]]]]]]]]]]]]]]]]]]^r$*$*$*%$%%$**$$=$%*$$*,L]]]]]]]]]]]]]]]]]]",
"]]]]]]]]]]]]]]]]]]]]W0                      #H]]]]]]]]]]]]]]]]]]",
"]]]]]]]]]]]]]]]]]]]]W0                      $H]]]]]]]]]]]]]]]]]]",
"]]]]]]]]]]]]]]]]]]]]W0                      $H]]]]]]]]]]]]]]]]]]",
"]]]]]]]]]]]]]]]]]]]]W0    -vbvvvvvvvvvci    $H]]]]]]]]]]]]]]]]]]",
"]]]]]]]]]]]]]]]]]]]]W0    4((((////(/(Qb    $H]]]]]]]]]]]]]]]]]]",
"]]]]]]]]]]]]]]]]]]]]W0    6]]]]]']]]]](n    $H]]]]]]]]]]]]]]]]]]",
"]]]]]]]]]]]]]]]]]]]]W0   X4]]]]]]]]]]](n    $H]]]]]]]]]]]]]]]]]]",
"]]]]]]]]]]]]]]]]]]]]W0    6]]]]]]]]]]](n    $H]]]]]]]]]]]]]]]]]]",
"]]]]]]]]]]]]]]]]]]]]W0    +ggggfggggggfq    $H]]]]]]]]]]]]]]]]]]",
"]]]]]]]]]]]]]]]]]]]]W0     +++++o+++o++X    $H]]]]]]]]]]]]]]]]]]",
"]]]]]]]]]]]]]]]]]]]]W0                      $H]]]]]]]]]]]]]]]]]]",
"]]]]]]]]]]]]]]]]]]]]W0                      $H]]]]]]]]]]]]]]]]]]",
"]]]]]]]]]]]]]]]]]]]]Wt@++@+@@+++++@+@+@++@++;L]]]]]]]]]]]]]]]]]]",
"]]]]]]]]]]]]]]]]]]]]`WTTTTTTTTTTTTTTTTTTTTTTT`']]]]]]]]]]]]]]]]]",
"]]]]]]]]]]]]]]]]]]]]]]`]]]]]``]]]]]`]]``]]'`]]]]]]]]]]]]]]]]]]]]",
"]]]]]]]]]]]]]]]]]]]]]]]]]]]]]]]]]]]]]]]]]]]]]]]]]]]]]]]]]]]]]]]]",
"]]]]]]]]]]]]]]]]]]]]]]]]]]]]]]]]]]]]]]]]]]]]]]]]]]]]]]]]]]]]]]]]",
"]]]]]]]]]]]]]]]]]]]]]]]]]]]]]]]]]]]]]]]]]]]]]]]]]]]]]]]]]]]]]]]]",
"]]]]]]]]]]]]]]]]]]]]]]]]]]]]]]]]]]]]]]]]]]]]]]]]]]]]]]]]]]]]]]]]",
"]]]]]]]]]]]]]]]]]]]]]]]]]]]]]]]]]]]]]]]]]]]]]]]]]]]]]]]]]]]]]]]]",
"]]]]]]]]]]]]]]]]]]]]]]]]]]]]]]]]]]]]]]]]]]]]]]]]]]]]]]]]]]]]]]]]",
"]]]]]]]]]]]]]]]]]]]]]]]]]]]]]]]]]]]]]]]]]]]]]]]]]]]]]]]]]]]]]]]]",
"]]]]]]]]]]]]]]]]]]]]]]]]]]]]]]]]]]]]]]]]]]]]]]]]]]]]]]]]]]]]]]]]",
"]]]]]]]]]]]]]]]]]]]]]]]]]]]]]]]]]]]]]]]]]]]]]]]]]]]]]]]]]]]]]]]]",
"]]]]]]]]]]]]]]]]]]]]]]]]]]]]]]]]]]]]]]]]]]]]]]]]]]]]]]]]]]]]]]]]"
};
