/* XPM */
static char *_341ae48d74042f7873369f939e643acWOjy47doPk1EVRqh[] = {
/* columns rows colors chars-per-pixel */
"64 64 74 1 ",
"  c #020101",
". c #040303",
"X c #040403",
"o c #060505",
"O c #080606",
"+ c #0A0807",
"@ c #0B0908",
"# c #0E0B0A",
"$ c #151110",
"% c #201A18",
"& c #231C1B",
"* c #261F1C",
"= c #2E2522",
"- c #312825",
"; c #342A27",
": c #352B28",
"> c #362C29",
", c #3C312D",
"< c #3D312E",
"1 c #3E322E",
"2 c #423532",
"3 c #463834",
"4 c #4A3C38",
"5 c #4F3F3B",
"6 c #50413C",
"7 c #594742",
"8 c #5E4C46",
"9 c #67534D",
"0 c #725C56",
"q c #7A625B",
"w c #7F665F",
"e c #836962",
"r c #856B64",
"t c #896E67",
"y c #8B6F68",
"u c #8D726A",
"i c #93766E",
"p c #94776E",
"a c #95776F",
"s c #997B72",
"d c #A4847B",
"f c #A9887E",
"g c #AE8C82",
"h c #BB968C",
"j c #BF998F",
"k c #C29C91",
"l c #C7A095",
"z c #C8A196",
"x c #CBA398",
"c c #CEA69A",
"v c #D3AA9E",
"b c #D5AB9F",
"n c #D7ADA1",
"m c #D8ADA1",
"M c #DEB2A6",
"N c #E3B7AA",
"B c #E4B7AA",
"V c #E5B8AC",
"C c #E7BAAD",
"Z c #E8BAAD",
"A c #EBBCAF",
"S c #F0C0B3",
"D c #F1C2B4",
"F c #F3C3B5",
"G c #F5C5B7",
"H c #F7C6B8",
"J c #F7C6B9",
"K c #F8C7BA",
"L c #F9C8BB",
"P c #FBCABC",
"I c #FCCABC",
"U c #FCCBBD",
"Y c #FDCBBD",
"T c #FECCBE",
/* pixels */
"TTTTTTTTTTTTTTTTTTTTTTTTTTTTTTTTTTTTTTTTTTTTTTTTTTTTTTTTTTTTTTTT",
"TTTTTTTTTTTTTTTTTTTTTTTTTTTTTTTTTTTTTTTTTTTTTTTTTTTTTTTTTTTTTTTT",
"TTTTTTTTTTTTTTTTTTTTTTTTTTTTTTTTTTTTTTTTTTTTTTTTTTTTTTTTTTTTTTTT",
"TTTTTTTTTTTTTTTTTTTTTTTTTTTTTTTTTTTTTTTTTTTTTTTTTTTTTTTTTTTTTTTT",
"TTTTTTTTTTTTTTTTTTTTTTTTTTTTTTTTTTTTTTTTTTTTTTTTTTTTTTTTTTTTTTTT",
"TTTTTTTTTTTTTTTTTTTTTTTTTTTTTTTTTTTTTTTTTTTTTTTTTTTTTTTTTTTTTTTT",
"TTTTTTTTTTTTTTTTTTTTTTTTTTTTTTTTTTTTTTTTTTTTTTTTTTTTTTTTTTTTTTTT",
"TTTTTTTTTTTTTTTTTTTTTTTTTTTTTTTTTTTTTTTTTTTTTTTTTTTTTTTTTTTTTTTT",
"TTTTTTTTTTTTTTTTTTTTTTTTTTTTTTTTTTTTTTTTTTTTTTTTTTTTTTTTTTTTTTTT",
"TTTTTTTTTTTTTTTTTTTTTTTTTTTTTTTTTTTTTTTTTTTTTTTTTTTTTTTTTTTTTTTT",
"TTTTTTTTTTTTTTTTTTTTTTTTTTTTTTTTTTTTTTTTTTTTTTTTTTTTTTTTTTTTTTTT",
"TTTTTTTTTTTTTTTTTTTTTTTTTTTTTTTTTTTTTTTTTTTTTTTTTTTTTTTTTTTTTTTT",
"TTTTTTTTTTTTTTTTTTTTTTTTTTTTTTTTTTTTTTTTTTTTTTTTTTTTTTTTTTTTTTTT",
"TTTTTTTTTTTTTTTTTTTTTTTTTTTTTTTTTTTTTTTTTTTTTTTTTTTTTTTTTTTTTTTT",
"TTTTTTTTTTTTTTTTTTTTTTTTTTTTTTTTTTTTTTTTTTTTTTTTTTTTTTTTTTTTTTTT",
"TTTTTTTTTTTTTTTTTTTTTTTTTTTTTTTTTTTTTTTTTGFFFFGTTTTTTTTTTTTTTTTT",
"TTTTTTTTTTTTTTTTTTTTTTTTTTTTTTTTTTTTTTTTL<+O@+2TTTTTTTTTTTTTTTTT",
"TTTTTTTTTTTTTTTTTTTTTTTTTTTTTTTTTTTTTTTTL>    <TTTTTTTTTTTTTTTTT",
"TTTTTTTTTTTTTTTTTTTTTTTYNzzlzzKTTTTTTTTTL>    <TTTTTTTTTTTTTTTTT",
"TTTTTTTTTTTTTTTTTTTTTTTPtOOoO#MTTTTTTTTTL;    <TTTTTTTTTTTTTTTTT",
"TTTTTTTTTTTTTTTTTTTTTTTPr    oMTTTTTTTTTL;    ,TTTTTTTTTTTTTTTTT",
"TTTTTTTTTTTTTTTTTTTTTTYPr    oMTTTTTTTTTL>    <YTTTTTTTTTTTTTTTT",
"TTTTTTTTTTTTTTTTTTTTTTYYr    oMTTTTTTTTTL>    <TTTTTTTTTTTTTTTTT",
"TTTTTTTTTTTTTTTTTTTTTYYPr    oMTTTTTTTTTL>    <TTTTTTTTTTTTTTTTT",
"TTTTTTTTTTTTTTTTTTTTTTTKq    XvTTTTTTTTTL>    <TTTTTTTTTTTTTTTTT",
"TTTTTTTTTTTTTTTTTTTTTTTP8    ohYTTTTTTTTL>    <TTTTTTTTTTTTTTTTT",
"TTTTTTTTTTTTTTTTTTTTTTTK2     dTTTTTTTTTL>    <TTTTTTTTTTTTTTTTT",
"TTTTTTTTTTTTTTTTTTTTTTTK*    .yTTLw22222<     <TTTTTTTTTTTTTTTTT",
"TTTTTTTTTTTTTTTTTTTTTTTJ      0TTL6           <TTTTTTTTTTTTTTTTT",
"TTTTTTTTTTTTTTTTTTTTTTYv      -TTL6           <TTTTTTTTTTTTTTTTT",
"TTTTTTTTTTTTTTTTTTTTTTYe      omTL6           <TTTTTTTTTTTTTTTTT",
"TTTTTTTTTTTTTTTTTTTTTTK*       uTLu;;>>--     <TTTTTTTTTTTTTTTTT",
"TTTTTTTTTTTTTTTTTTTTTTx        =TTLGJGGKF-    <TTTTTTTTTTTTTTTTT",
"TTTTTTTTTTTTTTTTTTTTTKw        OxTTTTTTTK:    <TTTTTTTTTTTTTTTTT",
"TTTTTTTTTTTTTTTTTTTTTn    .     >KTTTTTTP:    ,UTTTTTTTTTTTTTTTT",
"TTTTTTTTTTTTTTTTTTUUG,    O$    XqTTTTTTK:    ,UTTTTTTTTTTTTTTTT",
"TTTTTTTTTTTTTTTTTTTPr     $m    .#kTTTTTK:    <TTTTTTTTTTTTTTTTT",
"TTTTTTTTTTTTTTTTTTUk      gU7    X$zTTTTP:    <TTTTTTTTTTTTTTTTT",
"TTTTTTTTTTTTTTUUPKaO     5TTm      +eHTTK:    <TTTTTTTTTTTTTTTTT",
"TTTTTTTTTTTTTTTPN7      OnTTKu      o<bTP:    <TTTTTTTTTTTTTTTTT",
"TTTTTTTTTTTTTTTn$       eUUTTG3      owTP:    ,TTTTTTTTTTTTTTTTT",
"TTTTTTTTTTTTTTTA&      -GTUTUUA<     -ATP:    <YTTTTTTTTTTTTTTTT",
"TTTTTTTTTTTTTTTUz     :NTTTTTTTA2    xTTP>    <TTTTTTTTTTTTTTTTT",
"TTTTTTTTTTTTTTTTPs   4VUTTTTTTTUAu  dTTTK:    <TTTTTTTTTTTTTTTTT",
"TTTTTTTTTTTTTTTTUJ9#dKPUTTTTTTTTTPnsPYTTK:    <TTTTTTTTTTTTTTTTT",
"TTTTTTTTTTTTTTTTUUKAKUTUTTTTTTTTTTYPTYTTP:    <TTTTTTTTTTTTTTTTT",
"TTTTTTTTTTTTTTTTTTTUTTTTTTTTTTTTTTTTTTTTK:    <TTTTTTTTTTTTTTTTT",
"TTTTTTTTTTTTTTTTTTTTTTTTTTTTTTTTTTTTTTTTK:    <YTTTTTTTTTTTTTTTT",
"TTTTTTTTTTTTTTTTTTTTTTTTTTTTTTTTTTTTTTTTK>    <TTTTTTTTTTTTTTTTT",
"TTTTTTTTTTTTTTTTTTTTTTTTTTTTTTTTTTTTTTTTP>    <TTTTTTTTTTTTTTTTT",
"TTTTTTTTTTTTTTTTTTTTTTTTTTTTTTTTTTTTTTTTK>    <TTTTTTTTTTTTTTTTT",
"TTTTTTTTTTTTTTTTTTTTTTTTTTTTTTTTTTTTTTTTK>    <TTTTTTTTTTTTTTTTT",
"TTTTTTTTTTTTTTTTTTTTTTTTTTTTTTTTTTTTTTTTUgiiiakTTTTTTTTTTTTTTTTT",
"TTTTTTTTTTTTTTTTTTTTTTTTTTTTTTTTTTTTTTTTUKKKKPUUTTTTTTTTTTTTTTTT",
"TTTTTTTTTTTTTTTTTTTTTTTTTTTTTTTTTTTTTTTTTTUUTTTTTTTTTTTTTTTTTTTT",
"TTTTTTTTTTTTTTTTTTTTTTTTTTTTTTTTTTTTTTTTTTTTTTTTTTTTTTTTTTTTTTTT",
"TTTTTTTTTTTTTTTTTTTTTTTTTTTTTTTTTTTTTTTTTTTTTTTTTTTTTTTTTTTTTTTT",
"TTTTTTTTTTTTTTTTTTTTTTTTTTTTTTTTTTTTTTTTTTTTTTTTTTTTTTTTTTTTTTTT",
"TTTTTTTTTTTTTTTTTTTTTTTTTTTTTTTTTTTTTTTTTTTTTTTTTTTTTTTTTTTTTTTT",
"TTTTTTTTTTTTTTTTTTTTTTTTTTTTTTTTTTTTTTTTTTTTTTTTTTTTTTTTTTTTTTTT",
"TTTTTTTTTTTTTTTTTTTTTTTTTTTTTTTTTTTTTTTTTTTTTTTTTTTTTTTTTTTTTTTT",
"TTTTTTTTTTTTTTTTTTTTTTTTTTTTTTTTTTTTTTTTTTTTTTTTTTTTTTTTTTTTTTTT",
"TTTTTTTTTTTTTTTTTTTTTTTTTTTTTTTTTTTTTTTTTTTTTTTTTTTTTTTTTTTTTTTT",
"TTTTTTTTTTTTTTTTTTTTTTTTTTTTTTTTTTTTTTTTTTTTTTTTTTTTTTTTTTTTTTTT"
};
