/* XPM */
static char *_0f4bda126f04d18f71ead3e5969b7d9LrEPzZFKhDplxCNu[] = {
/* columns rows colors chars-per-pixel */
"33 34 7 1 ",
"  c None",
". c black",
"X c #696A6A",
"o c #FFD200",
"O c #8B9A9B",
"+ c #9BADB7",
"@ c #D4DEE4",
/* pixels */
"                                 ",
"XXXXXXXXXXXXXXXXXXXXXXXXXXXXXXXXX",
"XXX@@@@@@@@@@@@@@@@@@@@@@@@@@@XXX",
"X@@+++++++++++++++++++++++++++OOX",
"X@+++++++++++oooooooo++++++++++OX",
"X@+++++++++oooooooooooo++++++++OX",
"X@+++++++oooooooooooooooo++++++OX",
"X@++++++oooooooooooooooooo+++++OX",
"X@+++++oooooooooooooooooooo++++OX",
"X@++++oooo..oooooooooo..oooo+++OX",
"X@+++oooo...oooooooooo...oooo++OX",
"X@+++ooo.....oooooooo.....ooo++OX",
"X@++ooo.......oooooo.......ooo+OX",
"X@++ooo.......oooooo.......ooo+OX",
"X@+ooo.........oooo.........oooOX",
"X@+ooo.........oooo.........oooOX",
"X@+ooo........oo..oo........oooOX",
"X@+ooo........o....o........oooOX",
"X@+oooooooooooo....ooooooooooooOX",
"X@+ooooooooooooo..oooooooooooooOX",
"X@+ooooooooooooooooooooooooooooOX",
"X@+oooooooooooo....ooooooooooooOX",
"X@++ooooooooooo....ooooooooooo+OX",
"X@++ooooooooooo....ooooooooooo+OX",
"X@+++ooooooooo......ooooooooo++OX",
"X@+++ooooooooo......ooooooooo++OX",
"X@++++ooooooo........ooooooo+++OX",
"X@+++++oooooo........oooooo++++OX",
"X@++++++oooo..........oooo+++++OX",
"X@+++++++ooooo......ooooo++++++OX",
"X@+++++++++oooooooooooo++++++++OX",
"X@@++++++++++oooooooo+++++++++OOX",
"XXXOOOOOOOOOOOOOOOOOOOOOOOOOOOXXX",
"XXXXXXXXXXXXXXXXXXXXXXXXXXXXXXXXX"
};
