/* XPM */
static char *result[] = {
/* columns rows colors chars-per-pixel */
"30 38 86 1 ",
"  c #791577",
". c #761279",
"X c #76127A",
"o c #77137A",
"O c #832626",
"+ c #882727",
"@ c #892828",
"# c #A63131",
"$ c #A83030",
"% c #AA3131",
"& c #AC3232",
"* c #A23E3E",
"= c #894619",
"- c #8D4819",
"; c #8F481C",
": c #B15B20",
"> c #B35B20",
", c #B45E22",
"< c #B45F22",
"1 c #B9582B",
"2 c #CE5E3D",
"3 c #CF5E3E",
"4 c #D05F3D",
"5 c #D56C25",
"6 c #D96E25",
"7 c #DD7026",
"8 c #DF7126",
"9 c #DE7027",
"0 c #DC7326",
"q c #A54040",
"w c #C64949",
"e c #C74D4D",
"r c #CD4F4F",
"t c #CD5C41",
"y c #CF544F",
"u c #CE5050",
"i c #CE5350",
"p c #559727",
"a c #67B72F",
"s c #68B82E",
"d c #69BC2F",
"f c #75AF3C",
"g c #6BBD30",
"h c #6ABE30",
"j c #6BBF31",
"k c #79B53F",
"l c #82AE2E",
"z c #83AE2E",
"x c #86AC2E",
"c c #BFB829",
"v c #C6BE2B",
"b c #C6C02B",
"n c #F0D03A",
"m c #F9F035",
"M c #FBF235",
"N c #FBF236",
"B c #FCF236",
"V c #CBB553",
"C c #D1B35C",
"Z c #D0B25D",
"A c #D0B35D",
"S c #8FDD49",
"D c #93DD4D",
"F c #98E450",
"G c #99E550",
"H c #CCC65E",
"J c #DBD556",
"K c #D1CC60",
"L c #851487",
"P c #8A148D",
"I c #8B148E",
"U c #911795",
"Y c #951799",
"T c #96179A",
"R c #9B189F",
"E c #A919AC",
"W c #AA1AAD",
"Q c #AF1AB2",
"! c #489CAE",
"~ c #4BA2B4",
"^ c #4BA3B6",
"/ c #5BC6DC",
"( c #5DC7DE",
") c #5FCCE3",
"_ c #5FCDE4",
"` c None",
/* pixels */
"``````````````````````````````",
"``````````````````````````````",
"``````````````````````````````",
"``````````````````````````````",
"````````````````___^``````````",
"```````````````_____^`````````",
"``````````````_______~````````",
"``````````````_______~````````",
"``````````````_______~````````",
"``````````````(_____)!````````",
"```````````````(___)!`````````",
"````````````````///!``````````",
"``````````````````````````````",
"```````````hhl0888884 ````````",
"`````````hhhhhz8888883o```````",
"````````hhhhhgx8888883Y.``````",
"```````Sjdaasx88888883Yo``````",
"``````GGSp```88888889tYYX`````",
"``````GGFf```68888872UYRI`````",
"`````GGFf`````88875:=`TQQI````",
"````GGGk``````775>>-```WQQP```",
"````GGFf``````>>>>>-````QQP```",
"````DDf```````<<,>>;````EEL```",
"``````````````KKV,1uuuq```````",
"`````````````KKKKAiuuuuuq`````",
"`````````````KKKKKZuuuuuu*````",
"`````````````KKKKKCyuuuuw+````",
"`````````````KKKKKJneerw%O````",
"`````````````HKKKJNb``&&+`````",
"``````````````HKJNNb``&%O`````",
"```````````````JNNmc`&&+``````",
"``````````````NNNmc``&%O``````",
"`````````````NNNmc```&+```````",
"````````````BNNmc```&&+```````",
"````````````BNmc````$&@```````",
"````````````Bmc``````$&+``````",
"````````````Bb````````#O``````",
"````````````Mv````````````````"
};
