/* XPM */
static char *_80727e58b3249d8afd77d51908bbb633KvpQqwuzEpVKVwt[] = {
/* columns rows colors chars-per-pixel */
"32 35 5 1 ",
"  c None",
". c #696A6A",
"X c #8B9A9B",
"o c #9BADB7",
"O c #D4DEE4",
/* pixels */
"                                ",
"................................",
"...OOOOOOOOOOOOOOOOOOOOOOOOOOO..",
".OOoooooooooooooooooooooooooooXX",
".OoooooooooooooooooooooooooooooX",
".OoooooooooooooooooooooooooooooX",
".OoooooooooooooooooooooooooooooX",
".OoooooooooooooooooooooooooooooX",
".OoooooooooooooooooooooooooooooX",
".OoooooooooooooooooooooooooooooX",
".OoooooooooooooooooooooooooooooX",
".OoooooooooooooooooooooooooooooX",
".OoooooooooooooooooooooooooooooX",
".OoooooooooooooooooooooooooooooX",
".OoooooooooooooooooooooooooooooX",
".OoooooooooooooooooooooooooooooX",
".OoooooooooooooooooooooooooooooX",
".OoooooooooooooooooooooooooooooX",
".OoooooooooooooooooooooooooooooX",
".OoooooooooooooooooooooooooooooX",
".OoooooooooooooooooooooooooooooX",
".OoooooooooooooooooooooooooooooX",
".OoooooooooooooooooooooooooooooX",
".OoooooooooooooooooooooooooooooX",
".OoooooooooooooooooooooooooooooX",
".OoooooooooooooooooooooooooooooX",
".OoooooooooooooooooooooooooooooX",
".OoooooooooooooooooooooooooooooX",
".OoooooooooooooooooooooooooooooX",
".OoooooooooooooooooooooooooooooX",
".OoooooooooooooooooooooooooooooX",
".OOoooooooooooooooooooooooooooXX",
"...XXXXXXXXXXXXXXXXXXXXXXXXXXX..",
"................................",
"...OOOOOOOOOOOOOOOOOOOOOOOOOOO.."
};
