/* XPM */
static char *_1ae2c89e4654a1aba36406fd1bbbef6lNP9ZQtC0q5W2f9s[] = {
/* columns rows colors chars-per-pixel */
"33 33 6 1 ",
"  c None",
". c #696A6A",
"X c #AC3232",
"o c #8B9A9B",
"O c #9BADB7",
"+ c #D4DEE4",
/* pixels */
".................................",
"...+++++++++++++++++++++++++++...",
".++OOOOOOOOOOOOOOOOOOOOOOOOOOOoo.",
".+OOOOOOOOOOOOOOOOOOOOOOOOOOOOOo.",
".+OOOOOOOOOOOOOOOOOOOOOOOOOOOOOo.",
".+OOOOOOOOOOOOOOOOOOOOOOOOOOOOOo.",
".+OOXOOOOOOOOOOOOOOOOOOOOOOOOOOo.",
".+OOOOOOOOOOXOOOOOOOOOOOOOOOOOOo.",
".+OOOOOOXOXOXOOOOOOOOOOOOOOOOOOo.",
".+OOOOOOXOOOXXOOOOOOOOOOOOOOOOOo.",
".+OOOOOOXOOOOXOOOOXOOOOOOOOOOOOo.",
".+OOOOXOXXOOOXXOOOOXOOOOOOOOOOOo.",
".+OOOXOOXOOOOXXXOOXXOXOOOOOOOOOo.",
".+OOOXOOXOOOOXXXXOXXOXOOOOOOOOOo.",
".+OOXXOOXOOOOOXXXOXXXXOOOOOOOOOo.",
".+OOOXXOXOOOOXOOXXXXXOOOOOOOOOOo.",
".+OOOOXXOXOOXXXOXXXOXOXOOOOOOOOo.",
".+OXOOOXOOXOOXXXXXXOOXXOOOOOOOOo.",
".+OOOOOXOOXOOXOOXXXXXXOOOOOOOOOo.",
".+OOOOOOOOOXXOOOXXXXXXOOOOOOOOOo.",
".+OXOXOOOOOOXXOOOXXXXXXOOOXOOOOo.",
".+OXXOOOOOOOXXXXXXXXXXXOOXXXOOOo.",
".+OOXXOOOOOOOXXXXXXXXXXOOXXOOOOo.",
".+OOXXXOOOOOOXXXXXXXXXOOOOXOXOOo.",
".+OOXXXXOOOOXXOXXXXXXXXOOXXOOOOo.",
".+OOXOXXXXXXOXOOXXXXXXXOOXOOXOOo.",
".+OOXOOOXXOXOXXOXXXXXXXOOXOOXOOo.",
".+OOXOOXXOOXXXXOXXXXXXOOXXOOXOOo.",
".+OOOOOOXOOOXXXXXXXXXXOXXXOOXOOo.",
".+OOOOOOXOOOOXXXXXXXXXXXXXOOOOOo.",
".++OOOOOXOOOOOOOXXXXXXXXXXOOOOoo.",
"...oooooooooooooooXXXXXXXXoooo...",
"                                 "
};
